<?xml version="1.0" encoding="utf-8"?>
<!-- Generator: Adobe Illustrator 15.0.0, SVG Export Plug-In . SVG Version: 6.00 Build 0)  -->
<!DOCTYPE svg PUBLIC "-//W3C//DTD SVG 1.1//EN" "http://www.w3.org/Graphics/SVG/1.1/DTD/svg11.dtd">
<svg version="1.1" id="Layer_1" xmlns="http://www.w3.org/2000/svg" xmlns:xlink="http://www.w3.org/1999/xlink" x="0px" y="0px"
	 width="129px" height="36px" viewBox="0 0 129 36" enable-background="new 0 0 129 36" xml:space="preserve">
<g>
	<defs>
		<rect id="SVGID_1_" x="-73" y="-20" width="1280" height="1200"/>
	</defs>
	<clipPath id="SVGID_2_">
		<use xlink:href="#SVGID_1_"  overflow="visible"/>
	</clipPath>
	<g clip-path="url(#SVGID_2_)">
		<defs>
			<path id="SVGID_3_" d="M20.317,26.755c-0.251,0.524-0.428,0.713-0.536,0.781c-0.079,0.054-0.333,0.143-1.154,0.143h-1.761
				c-0.569,0-0.818-0.073-0.926-0.134c-0.105-0.061-0.238-0.18-0.173-0.513c0.009-0.047,0.05-0.181,0.221-0.555l0.675-1.433
				c0.275-0.599,0.495-0.812,0.632-0.885c0.133-0.074,0.428-0.162,1.082-0.162h3.224L20.317,26.755z M26.754,30.545
				c-0.05-0.354-0.048-0.677,0.008-0.96c0.106-0.539,0.267-1.042,0.479-1.494l2.824-6.075c0.377-0.807,0.608-1.443,0.707-1.943
				c0.228-1.16-0.052-2.145-0.832-2.93c-0.548-0.541-1.405-0.815-2.547-0.815H13.966l-2.584,3.829l0.519-0.258
				c0.709-0.353,1.733-0.531,3.042-0.531h7.197c0.502,0,0.862,0.039,1.072,0.117c0.121,0.044,0.25,0.137,0.187,0.46
				c-0.081,0.407-0.262,0.709-0.543,0.901C22.756,20.916,22.511,21,21.89,21h-6.825c-0.752,0-1.232,0.014-1.47,0.043
				c-0.624,0.087-1.188,0.262-1.679,0.523c-0.97,0.527-1.777,1.48-2.399,2.833l-0.63,1.36c-0.236,0.495-0.395,0.946-0.472,1.34
				c-0.212,1.079,0.074,1.99,0.85,2.708c0.649,0.604,1.675,0.911,3.048,0.911h4.22c0.665,0,1.28-0.103,1.831-0.305
				c0.361-0.141,0.705-0.377,1.025-0.703c-0.038,0.285-0.037,0.579,0.004,0.877l0.019,0.131h7.367L26.754,30.545z"/>
		</defs>
		<clipPath id="SVGID_4_">
			<use xlink:href="#SVGID_3_"  overflow="visible"/>
		</clipPath>
		<rect x="3.346" y="11.327" clip-path="url(#SVGID_4_)" fill="#FFCC00" width="32.501" height="24.392"/>
	</g>
</g>
<g>
	<defs>
		<rect id="SVGID_5_" x="-73" y="-20" width="1280" height="1200"/>
	</defs>
	<clipPath id="SVGID_6_">
		<use xlink:href="#SVGID_5_"  overflow="visible"/>
	</clipPath>
	<g clip-path="url(#SVGID_6_)">
		<defs>
			<path id="SVGID_7_" d="M37.183,26.976c0.055-0.285,0.19-0.655,0.401-1.102l2.476-5.345c0.217-0.452,0.422-0.755,0.604-0.896
				c0.232-0.167,0.648-0.257,1.235-0.266h1.629c0.723,0,0.996,0.145,1.097,0.266c0.065,0.079,0.084,0.181,0.059,0.312
				c-0.03,0.153-0.105,0.348-0.225,0.579c-0.081,0.159-0.157,0.322-0.227,0.48l-2.29,4.911c-0.184,0.404-0.337,0.717-0.457,0.932
				c-0.14,0.258-0.309,0.457-0.506,0.596c-0.21,0.157-0.579,0.236-1.095,0.236h-1.688c-0.475,0-0.8-0.09-0.94-0.258
				C37.168,27.314,37.144,27.169,37.183,26.976 M48.82,27.263l2.596-5.583c0.391-0.825,0.621-1.434,0.706-1.859
				c0.257-1.308-0.209-2.329-1.385-3.037c-0.525-0.307-1.375-0.456-2.597-0.456h-4.031c-0.716,0-1.301,0.089-1.742,0.266
				c-0.301,0.133-0.605,0.339-0.908,0.615l0.172-0.88h-7.876l0.031,0.178c0.061,0.347,0.062,0.668,0.005,0.955
				c-0.101,0.518-0.262,1.021-0.478,1.496l-7.835,16.842h8.264l-0.03-0.177c-0.059-0.354-0.06-0.681-0.003-0.971
				c0.101-0.511,0.261-1.009,0.476-1.48l1.652-3.561c0.123,0.307,0.282,0.54,0.479,0.699c0.351,0.267,0.913,0.4,1.722,0.41h5.243
				c1.406-0.038,2.492-0.286,3.222-0.734C47.406,29.494,48.186,28.579,48.82,27.263"/>
		</defs>
		<clipPath id="SVGID_8_">
			<use xlink:href="#SVGID_7_"  overflow="visible"/>
		</clipPath>
		<rect x="20.479" y="11.327" clip-path="url(#SVGID_8_)" fill="#FFCC00" width="36.711" height="29.471"/>
	</g>
</g>
<g>
	<defs>
		<rect id="SVGID_9_" x="-73" y="-20" width="1280" height="1200"/>
	</defs>
	<clipPath id="SVGID_10_">
		<use xlink:href="#SVGID_9_"  overflow="visible"/>
	</clipPath>
	<g clip-path="url(#SVGID_10_)">
		<defs>
			<path id="SVGID_11_" d="M58.003,26.976c0.056-0.285,0.191-0.655,0.401-1.102l2.476-5.344c0.218-0.454,0.423-0.757,0.604-0.897
				c0.233-0.167,0.648-0.257,1.235-0.266h1.628c0.724,0,0.996,0.145,1.097,0.266c0.065,0.079,0.085,0.181,0.06,0.312
				c-0.03,0.151-0.105,0.346-0.224,0.578c-0.081,0.16-0.158,0.323-0.228,0.481l-2.29,4.911c-0.187,0.409-0.34,0.722-0.457,0.932
				c-0.14,0.258-0.309,0.457-0.506,0.596c-0.21,0.157-0.579,0.236-1.095,0.236h-1.688c-0.474,0-0.8-0.09-0.94-0.258
				C57.99,27.314,57.965,27.169,58.003,26.976 M72.942,19.82c0.257-1.308-0.208-2.329-1.385-3.037
				c-0.525-0.307-1.374-0.457-2.597-0.457H64.93c-0.717,0-1.301,0.089-1.741,0.266c-0.301,0.133-0.606,0.339-0.909,0.615l0.173-0.88
				h-7.876l0.031,0.178c0.061,0.346,0.062,0.667,0.006,0.955c-0.102,0.52-0.264,1.023-0.479,1.496L46.3,35.798h8.263l-0.029-0.177
				c-0.06-0.354-0.061-0.682-0.003-0.97c0.101-0.511,0.261-1.01,0.476-1.481l1.652-3.561c0.123,0.307,0.282,0.54,0.478,0.699
				c0.351,0.267,0.914,0.4,1.721,0.41h5.244c1.405-0.038,2.492-0.286,3.222-0.734c0.905-0.491,1.685-1.406,2.318-2.722l2.596-5.583
				C72.628,20.854,72.858,20.247,72.942,19.82"/>
		</defs>
		<clipPath id="SVGID_12_">
			<use xlink:href="#SVGID_11_"  overflow="visible"/>
		</clipPath>
		<rect x="41.3" y="11.327" clip-path="url(#SVGID_12_)" fill="#FFCC00" width="36.711" height="29.471"/>
	</g>
</g>
<g>
	<defs>
		<rect id="SVGID_13_" x="-73" y="-20" width="1280" height="1200"/>
	</defs>
	<clipPath id="SVGID_14_">
		<use xlink:href="#SVGID_13_"  overflow="visible"/>
	</clipPath>
	<g clip-path="url(#SVGID_14_)">
		<defs>
			<path id="SVGID_15_" d="M80.901,22.01l0.637-1.384c0.337-0.72,0.584-0.979,0.729-1.069c0.217-0.126,0.572-0.189,1.056-0.189
				h2.256c0.348,0,0.585,0.065,0.688,0.188c0.066,0.08,0.084,0.193,0.054,0.347c-0.03,0.155-0.102,0.355-0.215,0.597L85.41,22.01
				H80.901 M78.917,26.267l0.564-1.217h12.005l1.662-3.596c0.22-0.469,0.379-0.947,0.474-1.424c0.135-0.69,0.088-1.319-0.14-1.869
				c-0.36-0.867-1.032-1.421-1.999-1.648c-0.559-0.123-1.361-0.186-2.384-0.186h-9.158c-2.575,0-4.384,1.106-5.376,3.287
				l-2.895,6.217c-0.19,0.412-0.322,0.801-0.392,1.156c-0.208,1.058,0.063,1.98,0.807,2.744c0.631,0.655,1.718,0.987,3.229,0.987
				h12.818l2.133-3.447l-0.389,0.119c-0.622,0.191-1.493,0.288-2.587,0.288h-7.037c-0.996-0.036-1.217-0.076-1.275-0.095
				c-0.116-0.027-0.204-0.095-0.27-0.209c-0.069-0.117-0.09-0.238-0.064-0.37C78.678,26.839,78.77,26.59,78.917,26.267"/>
		</defs>
		<clipPath id="SVGID_16_">
			<use xlink:href="#SVGID_15_"  overflow="visible"/>
		</clipPath>
		<rect x="66.212" y="11.327" clip-path="url(#SVGID_16_)" fill="#FFCC00" width="32.485" height="24.392"/>
	</g>
</g>
<g>
	<defs>
		<rect id="SVGID_17_" x="-73" y="-20" width="1280" height="1200"/>
	</defs>
	<clipPath id="SVGID_18_">
		<use xlink:href="#SVGID_17_"  overflow="visible"/>
	</clipPath>
	<g clip-path="url(#SVGID_18_)">
		<defs>
			<path id="SVGID_19_" d="M103.989,26.755c-0.25,0.523-0.427,0.713-0.535,0.781c-0.078,0.054-0.334,0.143-1.154,0.143h-1.761
				c-0.569,0-0.818-0.073-0.926-0.134c-0.106-0.062-0.238-0.18-0.173-0.514c0.009-0.047,0.05-0.182,0.221-0.554l0.674-1.433
				c0.276-0.599,0.496-0.812,0.634-0.885c0.132-0.074,0.428-0.162,1.081-0.162h3.224L103.989,26.755 M110.912,28.091l2.824-6.075
				c0.372-0.795,0.609-1.449,0.706-1.943c0.229-1.16-0.051-2.145-0.832-2.93c-0.547-0.541-1.404-0.815-2.547-0.815H97.639
				l-2.585,3.829l0.519-0.258c0.709-0.353,1.732-0.531,3.042-0.531h7.197c0.501,0,0.861,0.039,1.071,0.117
				c0.12,0.044,0.25,0.137,0.187,0.46c-0.081,0.413-0.258,0.707-0.544,0.902C106.43,20.916,106.184,21,105.562,21h-6.824
				c-0.751,0-1.231,0.014-1.471,0.043c-0.623,0.087-1.188,0.262-1.68,0.523c-0.969,0.527-1.776,1.48-2.397,2.833l-0.631,1.36
				c-0.236,0.495-0.395,0.946-0.472,1.341c-0.212,1.079,0.074,1.989,0.851,2.707c0.648,0.604,1.674,0.911,3.047,0.911h4.22
				c0.665,0,1.28-0.103,1.832-0.305c0.36-0.141,0.704-0.377,1.024-0.703c-0.038,0.285-0.037,0.579,0.005,0.877l0.019,0.131h7.366
				l-0.024-0.173c-0.05-0.355-0.047-0.679,0.008-0.96C110.54,29.047,110.701,28.544,110.912,28.091"/>
		</defs>
		<clipPath id="SVGID_20_">
			<use xlink:href="#SVGID_19_"  overflow="visible"/>
		</clipPath>
		<rect x="87.02" y="11.327" clip-path="url(#SVGID_20_)" fill="#FFCC00" width="32.5" height="24.392"/>
	</g>
</g>
<g>
	<defs>
		<rect id="SVGID_21_" x="-73" y="-20" width="1280" height="1200"/>
	</defs>
	<clipPath id="SVGID_22_">
		<use xlink:href="#SVGID_21_"  overflow="visible"/>
	</clipPath>
	<g clip-path="url(#SVGID_22_)">
		<defs>
			<path id="SVGID_23_" d="M120.922,28.104l7.82-16.842h-8.246l0.026,0.174c0.052,0.345,0.049,0.668-0.008,0.958
				c-0.105,0.535-0.265,1.033-0.476,1.481l-6.205,13.357c-0.524,1.108-0.99,1.926-1.383,2.428c-0.141,0.185-0.373,0.454-0.689,0.804
				l-0.229,0.254h8.931l-0.025-0.175c-0.052-0.346-0.049-0.668,0.008-0.959C120.549,29.057,120.709,28.559,120.922,28.104"/>
		</defs>
		<clipPath id="SVGID_24_">
			<use xlink:href="#SVGID_23_"  overflow="visible"/>
		</clipPath>
		<rect x="106.532" y="6.262" clip-path="url(#SVGID_24_)" fill="#FFCC00" width="27.21" height="29.457"/>
	</g>
</g>
<g>
	<defs>
		<rect id="SVGID_25_" x="-73" y="-20" width="1280" height="1200"/>
	</defs>
	<clipPath id="SVGID_26_">
		<use xlink:href="#SVGID_25_"  overflow="visible"/>
	</clipPath>
	<g clip-path="url(#SVGID_26_)">
		<defs>
			<path id="SVGID_27_" d="M9.044,14.355c-0.052-0.346-0.049-0.668,0.008-0.959c0.104-0.528,0.263-1.026,0.476-1.481l3.401-7.309
				c0.302-0.643,0.581-1.046,0.833-1.201c0.15-0.097,0.499-0.216,1.304-0.228h1.761c0.272,0,0.473,0.036,0.6,0.107
				c0.247,0.136,0.339,0.316,0.29,0.568c-0.011,0.056-0.083,0.267-0.435,1.046l-2.852,6.145c-0.524,1.108-0.989,1.924-1.382,2.428
				c-0.139,0.182-0.372,0.453-0.69,0.805l-0.229,0.253h8.95l-0.031-0.178c-0.061-0.345-0.063-0.662-0.008-0.941
				c0.106-0.538,0.267-1.042,0.479-1.496l3.433-7.407c0.281-0.58,0.547-0.956,0.787-1.115c0.229-0.143,0.589-0.215,1.071-0.215
				h1.761c0.511,0,0.848,0.093,1,0.275c0.094,0.112,0.12,0.266,0.08,0.47c-0.04,0.202-0.143,0.488-0.308,0.85l-2.921,6.272
				c-0.514,1.107-0.979,1.922-1.382,2.427c-0.142,0.185-0.374,0.456-0.691,0.805l-0.229,0.253h8.932l-0.026-0.174
				c-0.051-0.346-0.049-0.668,0.008-0.959c0.103-0.52,0.263-1.019,0.476-1.481L36.36,5.77C36.72,5.003,36.929,4.455,37,4.093
				c0.226-1.146-0.002-2.128-0.677-2.918c-0.579-0.688-1.479-1.037-2.675-1.037h-5.195c-0.612,0-1.101,0.085-1.451,0.253
				c-0.327,0.151-0.658,0.445-1.006,0.893c-0.112-0.405-0.309-0.706-0.589-0.897c-0.262-0.167-0.708-0.249-1.364-0.249h-7.203
				c-0.783,0-1.399,0.094-1.834,0.281c-0.188,0.087-0.383,0.22-0.585,0.4l0.316-0.681H6.736l0.029,0.176
				C6.825,0.668,6.827,0.99,6.772,1.271C6.67,1.789,6.509,2.292,6.293,2.765L2.44,11.043c-0.524,1.108-0.989,1.924-1.382,2.428
				c-0.139,0.182-0.372,0.452-0.69,0.804l-0.23,0.253H9.07L9.044,14.355"/>
		</defs>
		<clipPath id="SVGID_28_">
			<use xlink:href="#SVGID_27_"  overflow="visible"/>
		</clipPath>
		<rect x="-4.862" y="-4.862" clip-path="url(#SVGID_28_)" fill="#FFCC00" width="46.946" height="24.392"/>
	</g>
</g>
<g>
	<defs>
		<rect id="SVGID_29_" x="-73" y="-20" width="1280" height="1200"/>
	</defs>
	<clipPath id="SVGID_30_">
		<use xlink:href="#SVGID_29_"  overflow="visible"/>
	</clipPath>
	<g clip-path="url(#SVGID_30_)">
		<defs>
			<path id="SVGID_31_" d="M47.898,10.732c-0.25,0.524-0.427,0.713-0.535,0.781c-0.079,0.053-0.334,0.142-1.155,0.142h-1.76
				c-0.57,0-0.819-0.073-0.926-0.133c-0.105-0.061-0.237-0.181-0.172-0.514c0.009-0.046,0.049-0.179,0.22-0.554l0.675-1.432
				c0.276-0.6,0.495-0.811,0.633-0.885c0.133-0.075,0.429-0.164,1.081-0.164h3.224L47.898,10.732 M35.995,11.077
				c-0.212,1.079,0.075,1.991,0.851,2.708c0.649,0.604,1.675,0.911,3.048,0.911h4.22c0.667,0,1.281-0.103,1.831-0.305
				c0.361-0.14,0.705-0.375,1.024-0.702c-0.038,0.287-0.037,0.581,0.006,0.876l0.018,0.131h7.366l-0.024-0.173
				c-0.05-0.354-0.047-0.677,0.009-0.96c0.105-0.539,0.267-1.041,0.478-1.495l2.824-6.075c0.371-0.793,0.609-1.447,0.707-1.943
				C58.58,2.89,58.3,1.904,57.52,1.121c-0.548-0.542-1.405-0.816-2.547-0.816H41.547l-2.585,3.829l0.519-0.258
				c0.709-0.353,1.73-0.531,3.035-0.531h7.205c0.503,0,0.864,0.04,1.071,0.117c0.128,0.047,0.25,0.139,0.187,0.46
				c-0.08,0.406-0.261,0.709-0.543,0.902c-0.097,0.07-0.343,0.153-0.964,0.153h-6.825c-0.75,0-1.23,0.014-1.47,0.043
				c-0.625,0.087-1.189,0.262-1.68,0.522c-0.97,0.528-1.777,1.482-2.399,2.834l-0.63,1.359
				C36.232,10.23,36.073,10.681,35.995,11.077"/>
		</defs>
		<clipPath id="SVGID_32_">
			<use xlink:href="#SVGID_31_"  overflow="visible"/>
		</clipPath>
		<rect x="30.928" y="-4.696" clip-path="url(#SVGID_32_)" fill="#FFCC00" width="32.501" height="24.391"/>
	</g>
</g>
<g>
	<defs>
		<rect id="SVGID_33_" x="-73" y="-20" width="1280" height="1200"/>
	</defs>
	<clipPath id="SVGID_34_">
		<use xlink:href="#SVGID_33_"  overflow="visible"/>
	</clipPath>
	<g clip-path="url(#SVGID_34_)">
		<defs>
			<path id="SVGID_35_" d="M79.635,7.26c-0.141,0.706-0.075,1.329,0.196,1.853c0.387,0.746,1.064,1.175,2.013,1.274
				c0.56,0.066,1.207,0.099,1.923,0.099h4.368c0.2,0,0.301,0.007,0.346,0.012c0.085,0.013,0.141,0.038,0.168,0.075
				c0.034,0.049,0.026,0.133,0.015,0.194c-0.121,0.605-0.481,0.888-1.134,0.888H81.67c-1.383-0.037-2.228-0.065-2.504-0.083
				c-0.367-0.037-0.845-0.152-1.423-0.344l-0.148-0.05l-1.081,3.517H89.92c1.26,0,2.219-0.077,2.849-0.229
				c0.512-0.116,1.036-0.336,1.559-0.657c0.523-0.32,0.964-0.692,1.309-1.103c0.352-0.401,0.725-1.017,1.107-1.832l1.024-2.161
				c0.276-0.579,0.456-1.072,0.535-1.466c0.162-0.812-0.05-1.55-0.631-2.194c-0.483-0.527-1.269-0.793-2.334-0.793h-5.87
				c-0.48,0-0.658-0.014-0.718-0.024c-0.209-0.044-0.232-0.138-0.203-0.286c0.082-0.408,0.414-0.607,1.017-0.607h6.877
				c0.879,0,1.599,0.033,2.135,0.097c0.436,0.063,0.888,0.197,1.346,0.396l0.167,0.073l0.886-3.605H86.998
				c-1.482,0.028-2.6,0.228-3.317,0.591c-0.854,0.405-1.664,1.295-2.41,2.654l-1.357,2.862C79.789,6.672,79.695,6.958,79.635,7.26"
				/>
		</defs>
		<clipPath id="SVGID_36_">
			<use xlink:href="#SVGID_35_"  overflow="visible"/>
		</clipPath>
		<rect x="71.514" y="-4.696" clip-path="url(#SVGID_36_)" fill="#FFCC00" width="34.46" height="24.391"/>
	</g>
</g>
<g>
	<defs>
		<rect id="SVGID_37_" x="-73" y="-20" width="1280" height="1200"/>
	</defs>
	<clipPath id="SVGID_38_">
		<use xlink:href="#SVGID_37_"  overflow="visible"/>
	</clipPath>
	<g clip-path="url(#SVGID_38_)">
		<defs>
			<path id="SVGID_39_" d="M66.855,11.656h-5.86c-1.383-0.037-2.228-0.065-2.504-0.083c-0.366-0.037-0.845-0.152-1.422-0.344
				l-0.149-0.05l-1.081,3.517h13.406c1.26,0,2.219-0.077,2.849-0.229c0.511-0.116,1.035-0.336,1.559-0.657
				c0.523-0.32,0.965-0.692,1.309-1.103c0.352-0.4,0.726-1.017,1.107-1.831l1.025-2.161c0.275-0.579,0.455-1.072,0.535-1.466
				c0.161-0.812-0.051-1.55-0.632-2.194c-0.483-0.526-1.269-0.793-2.335-0.793h-5.869c-0.48,0-0.658-0.014-0.717-0.024
				c-0.21-0.044-0.233-0.138-0.204-0.286c0.081-0.408,0.414-0.607,1.018-0.607h6.876c0.879,0,1.599,0.033,2.135,0.097
				c0.436,0.063,0.888,0.197,1.346,0.396l0.167,0.073l0.886-3.605H66.323c-1.483,0.028-2.601,0.228-3.317,0.591
				c-0.855,0.405-1.665,1.295-2.41,2.654l-1.358,2.862c-0.124,0.261-0.218,0.547-0.278,0.849c-0.141,0.706-0.076,1.329,0.196,1.853
				c0.387,0.746,1.064,1.175,2.012,1.274c0.56,0.066,1.207,0.1,1.923,0.1h4.369c0.199,0,0.3,0.006,0.345,0.012
				c0.084,0.012,0.141,0.038,0.167,0.075c0.035,0.049,0.028,0.133,0.016,0.194C67.867,11.374,67.507,11.656,66.855,11.656"/>
		</defs>
		<clipPath id="SVGID_40_">
			<use xlink:href="#SVGID_39_"  overflow="visible"/>
		</clipPath>
		<rect x="50.839" y="-4.696" clip-path="url(#SVGID_40_)" fill="#FFCC00" width="34.46" height="24.391"/>
	</g>
</g>
</svg>
